<svg xmlns="http://www.w3.org/2000/svg" width="16.812" height="11.38" viewBox="0 0 16.812 11.38">
  <defs>
    <style>
      .cls-1 {
        fill: #0f0f0f;
        fill-rule: evenodd;
      }
    </style>
  </defs>
  <path id="bed" class="cls-1" d="M693.768,2058.72v-2.73a1.559,1.559,0,0,0-1.672-1.67H681.849a1.548,1.548,0,0,0-1.671,1.67v2.73a1.714,1.714,0,0,0-1.583,1.87v2.12a0.648,0.648,0,0,0,.649.65h0.214v1.67a0.648,0.648,0,0,0,.648.65h0.611a0.647,0.647,0,0,0,.648-0.65v-1.69h11.271v1.69a0.646,0.646,0,0,0,.647.65h0.611a0.646,0.646,0,0,0,.646-0.65v-1.69h0.217a0.638,0.638,0,0,0,.647-0.64v-2.11A1.787,1.787,0,0,0,693.768,2058.72Zm-12.979-2.73h0.036a0.918,0.918,0,0,1,1.024-1.02H692.1a0.918,0.918,0,0,1,1.025,1.02v2.72h-0.485v-1.55a0.648,0.648,0,0,0-.648-0.65h-3.954a0.646,0.646,0,0,0-.648.65v1.55h-0.755v-1.55a0.647,0.647,0,0,0-.647-0.65h-3.955a0.646,0.646,0,0,0-.647.65v1.55h-0.593v-2.72Zm11.2,1.17v1.55h-3.954v-1.55h3.954Zm-5.967,0v1.55h-3.955v-1.55h3.955Zm-5.322,7.87h-0.612v-1.69H680.7v1.69h0Zm13.159,0h-0.611v-1.69h0.611v1.69Zm0.844-2.32H679.225v-0.95H694.7v0.95Zm0-1.6H679.225v-0.52a1.129,1.129,0,0,1,1.24-1.24h13a1.121,1.121,0,0,1,1.24,1.24v0.52h0Z" transform="translate(-678.594 -2054.31)"/>
</svg>
