<svg xmlns="http://www.w3.org/2000/svg" width="19.15" height="26" viewBox="0 0 19.15 26">
  <defs>
    <style>
      .cls-1 {
        fill: #fff;
        fill-rule: evenodd;
      }
    </style>
  </defs>
  <path id="location" class="cls-1" d="M1243.27,744.288a9.579,9.579,0,0,0-9.57,9.571,9.263,9.263,0,0,0,.84,3.907c2.39,5.237,6.98,10.767,8.33,12.336a0.533,0.533,0,0,0,.4.185,0.517,0.517,0,0,0,.4-0.185c1.35-1.569,5.94-7.1,8.34-12.336a9.409,9.409,0,0,0,.83-3.907A9.579,9.579,0,0,0,1243.27,744.288Zm0,14.543a4.972,4.972,0,1,1,4.97-4.972A4.977,4.977,0,0,1,1243.27,758.831Z" transform="translate(-1233.69 -744.281)"/>
</svg>
