<svg xmlns="http://www.w3.org/2000/svg" width="24.878" height="24.781" viewBox="0 0 24.878 24.781">
  <defs>
    <style>
      .cls-1 {
        fill: #fff;
        fill-rule: evenodd;
      }
    </style>
  </defs>
  <path id="phone" class="cls-1" d="M1006.36,764.712l-3.83-3.838a2,2,0,0,0-2.823.054l-1.932,1.932c-0.123-.067-0.249-0.137-0.382-0.212a18.116,18.116,0,0,1-8.019-8.02c-0.072-.129-0.14-0.254-0.208-0.373l1.3-1.295,0.637-.638a2,2,0,0,0,.052-2.821l-3.837-3.838a2,2,0,0,0-2.82.053l-1.081,1.088,0.029,0.029a6.254,6.254,0,0,0-.891,1.572,6.488,6.488,0,0,0-.4,1.594c-0.507,4.2,1.413,8.038,6.621,13.247,7.2,7.2,13,6.655,13.252,6.628a6.541,6.541,0,0,0,1.6-.4,6.189,6.189,0,0,0,1.56-.887l0.03,0.021,1.09-1.073A2,2,0,0,0,1006.36,764.712Z" transform="translate(-982.062 -745.094)"/>
</svg>
