<svg xmlns="http://www.w3.org/2000/svg" width="9.719" height="11.5" viewBox="0 0 9.719 11.5">
  <defs>
    <style>
      .cls-1 {
        fill-rule: evenodd;
      }
    </style>
  </defs>
  <path id="shower" class="cls-1" d="M613.262,2054.16h-2.588a2.249,2.249,0,0,0-2.243,2.25v1.31a3.1,3.1,0,0,0-2.647,3.07,0.44,0.44,0,0,0,.448.44h5.294a0.44,0.44,0,0,0,.449-0.44,3.1,3.1,0,0,0-2.647-3.07v-1.31a1.347,1.347,0,0,1,1.346-1.35h2.588a1.346,1.346,0,0,1,1.345,1.35v8.79a0.449,0.449,0,1,0,.9,0v-8.79A2.25,2.25,0,0,0,613.262,2054.16Zm-2.23,6.18h-4.305A2.2,2.2,0,0,1,611.032,2060.34Zm-1.7,1.99V2063a0.449,0.449,0,1,1-.9,0v-0.67A0.449,0.449,0,1,1,609.328,2062.33Zm0,2.2v0.67a0.449,0.449,0,1,1-.9,0v-0.67A0.449,0.449,0,1,1,609.323,2064.53Zm-1.757-2.2V2063a0.449,0.449,0,1,1-.9,0v-0.67A0.449,0.449,0,1,1,607.566,2062.33Zm0,2.2v0.67a0.449,0.449,0,1,1-.9,0v-0.67A0.449,0.449,0,1,1,607.561,2064.53Zm3.524-2.2V2063a0.449,0.449,0,1,1-.9,0v-0.67A0.449,0.449,0,1,1,611.085,2062.33Zm-0.006,2.2v0.67a0.449,0.449,0,1,1-.9,0v-0.67A0.449,0.449,0,1,1,611.079,2064.53Z" transform="translate(-605.781 -2054.16)"/>
</svg>
